<svg width="1020" height="639" viewBox="0 0 1020 639" fill="none" xmlns="http://www.w3.org/2000/svg">
<g id="logo-02 1">
<g id="antena">
<path id="Vector" d="M749.68 187.045C749.68 187.055 749.68 187.055 749.68 187.045C749.67 187.055 749.65 187.065 749.64 187.075C748.81 187.695 735.33 197.835 731.67 211.905C729.93 218.195 729.45 223.315 730.33 227.525C731.02 230.865 732.49 233.585 733.21 234.785C733.22 234.795 733.22 234.795 733.22 234.795C733.49 235.225 733.65 235.465 733.65 235.465L718.38 232.495H718.37L718.36 232.485L718.21 232.455C718.21 232.445 718.2 232.445 718.2 232.445H718.19L701.58 229.225C701.58 229.225 702.91 228.685 704.91 227.625C705.79 227.155 706.81 226.585 707.9 225.925C708.14 225.775 708.39 225.625 708.64 225.465H708.65C714.21 221.945 721.37 216.025 723.53 207.945C727.1 194.575 720.24 184.645 718.8 182.755C718.71 182.645 718.62 182.545 718.53 182.425L749.68 187.045C749.68 187.055 749.68 187.055 749.68 187.045Z" fill="#059033"/>
<path id="Vector_2" d="M754.63 153.695C762.57 163.655 760.92 178.165 750.96 186.105C741 194.045 726.49 192.395 718.55 182.435C710.61 172.475 712.26 157.965 722.22 150.025C732.18 142.085 746.69 143.735 754.63 153.695Z" fill="#059033"/>
<path id="Vector_3" d="M782.32 232.875L781.97 262.045C781.94 262.005 781.91 261.965 781.88 261.925C780.93 260.735 772.69 250.955 758.22 251.485C754.73 251.615 751.42 252.675 748.4 254.215H748.39C747.53 254.655 746.69 255.135 745.88 255.635C741.03 258.675 737.16 262.695 734.88 265.375C734.87 265.385 734.87 265.385 734.87 265.385C733.7 266.775 732.95 267.785 732.71 268.115V268.125C732.66 268.185 732.63 268.225 732.63 268.225V268.205L733.38 244.015L733.4 243.375V243.365L733.65 235.465C733.65 235.465 733.83 235.675 734.19 236.005C735.19 236.985 737.53 239.045 740.65 240.475C744.56 242.265 749.65 242.945 756.18 242.655C769.24 242.065 781.77 233.255 782.3 232.875C782.31 232.885 782.31 232.875 782.32 232.875Z" fill="#059033"/>
<path id="Vector_4" d="M818.05 233.305C810.11 223.345 795.6 221.695 785.64 229.635C775.68 237.575 774.03 252.085 781.97 262.045C789.91 272.005 804.42 273.655 814.38 265.715C824.34 257.775 825.99 243.265 818.05 233.305Z" fill="#059033"/>
<path id="Vector_5" d="M734.88 265.365C734.87 265.375 734.87 265.375 734.87 265.375C734.23 266.325 733.51 267.235 732.71 268.105V268.115C732.68 268.145 732.66 268.175 732.63 268.195C731.75 269.155 730.79 270.055 729.74 270.885C718.85 279.565 702.97 277.775 694.29 266.875C685.61 255.975 687.4 240.105 698.3 231.425C700.35 229.795 702.58 228.525 704.91 227.625C706.18 227.135 707.5 226.745 708.82 226.465C709.15 226.395 709.47 226.335 709.79 226.285C718.29 224.835 727.28 227.805 733.21 234.775C733.22 234.785 733.22 234.785 733.22 234.785C733.4 234.995 733.58 235.215 733.76 235.435C733.91 235.615 734.05 235.805 734.19 235.995C736.8 239.445 738.37 243.365 738.97 247.385C739.06 247.955 739.13 248.535 739.17 249.125H739.18C739.63 254.805 738.16 260.565 734.88 265.365Z" fill="#059033"/>
</g>
<path id="m-logo" d="M699.16 386.365C699.17 386.375 699.16 386.375 699.16 386.375C699.36 389.785 698.5 393.225 697.56 396.525C697.3 397.435 697.04 398.325 696.76 399.225C696.75 399.275 696.73 399.325 696.72 399.375C696.69 399.465 696.66 399.555 696.64 399.645C696.39 400.445 696.14 401.235 695.89 402.025C695.61 402.885 695.33 403.745 695.04 404.595C695.02 404.635 695.01 404.685 694.99 404.735C694.71 405.555 694.42 406.385 694.12 407.195C694.07 407.355 694.01 407.515 693.95 407.665C693.67 408.465 693.36 409.265 693.06 410.065C692.76 410.865 692.45 411.645 692.14 412.425C691.73 413.445 691.31 414.465 690.89 415.475C690.86 415.535 690.83 415.605 690.81 415.675C690.79 415.715 690.77 415.765 690.75 415.815C690.46 416.505 690.16 417.195 689.86 417.875C689.68 418.285 689.51 418.685 689.32 419.085C689.14 419.485 688.96 419.895 688.78 420.295C688.46 421.005 688.14 421.705 687.8 422.405C687.77 422.485 687.73 422.555 687.7 422.625C687.67 422.675 687.66 422.715 687.63 422.775C687.59 422.855 687.55 422.935 687.52 423.005C687.29 423.495 687.05 423.985 686.81 424.475C686.75 424.625 686.67 424.775 686.6 424.915C686.19 425.765 685.77 426.605 685.35 427.435C685.34 427.465 685.32 427.495 685.31 427.525L685.3 427.535C685.3 427.545 685.3 427.545 685.29 427.545C685.28 427.555 685.28 427.575 685.27 427.585C685.26 427.625 685.24 427.655 685.22 427.695C685.21 427.715 685.2 427.735 685.19 427.755C685.18 427.795 685.16 427.825 685.15 427.855C685.14 427.865 685.14 427.885 685.13 427.895C684.92 428.335 684.71 428.775 684.49 429.225C684.21 429.795 683.93 430.355 683.66 430.915C683.02 432.175 682.37 433.425 681.7 434.675C681.41 435.225 681.11 435.765 680.82 436.305C680.19 437.475 679.53 438.645 678.86 439.805C678.53 440.385 678.19 440.965 677.85 441.545C677.57 442.035 677.28 442.515 676.98 443.005C676.23 444.265 675.46 445.515 674.66 446.755C674.31 447.315 673.95 447.875 673.58 448.425C673.28 448.895 672.97 449.375 672.65 449.835C672.33 450.325 672 450.815 671.67 451.295C671.31 451.835 670.95 452.365 670.58 452.895C670.33 453.255 670.08 453.615 669.83 453.975C669.55 454.375 669.26 454.775 668.98 455.175C661.26 466.795 652.88 478.095 644.52 489.645L643.98 490.385L632.71 505.965C632.71 505.965 662.13 505.965 691.5 505.965H749.41C754.12 500.855 758.59 495.415 762.78 489.665C762.79 489.655 762.79 489.655 762.79 489.645C762.91 489.485 763.02 489.325 763.14 489.175C763.34 488.895 763.54 488.625 763.73 488.345C763.89 488.115 764.06 487.895 764.22 487.655C764.26 487.595 764.3 487.545 764.35 487.475C764.35 487.465 764.36 487.465 764.36 487.465C768.39 481.765 772.03 475.905 775.32 469.935C788.83 445.325 796.08 418.605 797.41 391.835C797.49 390.375 797.54 388.905 797.57 387.435C797.61 385.865 797.63 384.285 797.63 382.715C797.62 370.445 796.39 358.225 793.94 346.235C793.93 346.205 793.93 346.175 793.92 346.145C793.51 344.125 793.06 342.115 792.58 340.115C792.58 340.095 792.57 340.075 792.57 340.055C791.91 337.615 791.11 335.225 790.19 332.895C785.28 320.395 776.85 309.675 766.11 301.935C765.61 301.585 765.11 301.245 764.61 300.905C764.38 300.745 764.15 300.585 763.92 300.435C763.69 300.285 763.46 300.125 763.22 299.975C762.89 299.755 762.55 299.535 762.21 299.325C758.79 297.145 755.24 295.125 751.58 293.315C751.57 293.305 751.57 293.305 751.56 293.305C751.08 293.095 750.61 292.885 750.13 292.685C749.73 292.515 749.33 292.345 748.94 292.185C748.6 292.035 748.26 291.895 747.91 291.755C747.9 291.745 747.89 291.745 747.88 291.745C746.09 291.005 744.3 290.305 742.5 289.635C741.89 289.405 741.29 289.185 740.68 288.965C739.89 288.675 739.1 288.395 738.31 288.125C737.89 287.975 737.46 287.825 737.04 287.685C735.8 287.265 734.55 286.855 733.3 286.465C732.71 286.275 732.12 286.095 731.53 285.915C730.99 285.755 730.46 285.595 729.92 285.435C729.01 285.165 728.1 284.915 727.19 284.655C727.05 284.615 726.91 284.575 726.77 284.545C726.63 284.505 726.49 284.465 726.35 284.435C726.34 284.425 726.34 284.425 726.33 284.425C726.32 284.425 726.32 284.425 726.31 284.415C726.28 284.405 726.25 284.405 726.23 284.395C726.22 284.385 726.21 284.385 726.2 284.385C726.13 284.355 726.06 284.345 725.99 284.325C725.55 284.205 725.11 284.095 724.68 283.975C724.38 283.895 724.09 283.815 723.78 283.745C723.21 283.595 722.64 283.465 722.08 283.325C720.7 282.985 719.31 282.665 717.91 282.355C717.51 282.265 717.1 282.175 716.7 282.085C715.46 281.815 714.21 281.575 712.96 281.335C712.34 281.215 711.71 281.105 711.09 280.985C709.84 280.755 708.59 280.545 707.34 280.355C706.8 280.265 706.25 280.185 705.71 280.105C704.37 279.905 703.04 279.725 701.7 279.555C700.48 279.395 699.24 279.255 698.02 279.125C696.29 278.945 694.56 278.795 692.83 278.655C692.43 278.625 692.02 278.595 691.62 278.565C691.19 278.535 690.77 278.505 690.34 278.475C689.74 278.445 689.14 278.405 688.54 278.375H688.51C688.11 277.415 687.7 276.465 687.27 275.505C686.85 274.555 686.41 273.605 685.98 272.655C685.54 271.705 685.09 270.765 684.64 269.825C684.19 268.885 683.72 267.955 683.25 267.025C682.85 266.225 682.44 265.445 682.02 264.655C681.89 264.395 681.75 264.145 681.62 263.895C681.29 263.255 680.94 262.625 680.59 261.995C680.46 261.755 680.33 261.515 680.2 261.275C679.83 260.615 679.46 259.945 679.08 259.295C678.33 257.965 677.56 256.655 676.77 255.355C676.38 254.695 675.98 254.045 675.57 253.395C675.54 253.345 675.51 253.295 675.48 253.245C674.97 252.435 674.46 251.615 673.93 250.805C673.87 250.695 673.8 250.595 673.73 250.495C673.3 249.825 672.86 249.155 672.41 248.485C672.25 248.235 672.08 247.985 671.92 247.745C671.39 246.965 670.86 246.185 670.32 245.405C669.73 244.545 669.12 243.695 668.51 242.845C668.5 242.835 668.5 242.825 668.48 242.815C667.86 241.955 667.23 241.105 666.59 240.255C665.32 238.555 664.01 236.875 662.67 235.225C662.27 234.725 661.86 234.225 661.45 233.725C660.58 232.655 659.68 231.605 658.78 230.555C658.41 230.125 658.04 229.705 657.66 229.285C657.23 228.795 656.8 228.305 656.36 227.825C656.27 227.715 656.17 227.615 656.07 227.505C655.63 227.015 655.19 226.535 654.74 226.055C654.27 225.555 653.81 225.045 653.33 224.545C653.05 224.245 652.76 223.935 652.47 223.645C655 226.325 657.31 229.215 659.37 232.275C657.29 229.215 654.98 226.325 652.47 223.645C652.43 223.605 652.39 223.555 652.35 223.515C652.32 223.485 652.3 223.455 652.27 223.435C652.26 223.425 652.24 223.405 652.23 223.395C651.81 222.955 651.38 222.515 650.95 222.075L650.72 221.845C649.79 220.915 648.83 220.015 647.84 219.155C647.52 218.865 647.18 218.575 646.85 218.295C646.19 217.725 645.51 217.165 644.82 216.625C644.48 216.355 644.13 216.085 643.78 215.815C643.43 215.545 643.08 215.295 642.73 215.035C642.38 214.775 642.02 214.525 641.66 214.275C640.57 213.505 639.45 212.765 638.32 212.075C637.96 211.845 637.59 211.625 637.23 211.415C636.86 211.195 636.49 210.975 636.11 210.755C635.33 210.315 634.55 209.885 633.76 209.485C633.44 209.315 633.11 209.155 632.78 208.995C632.47 208.835 632.17 208.685 631.86 208.545C631.47 208.355 631.08 208.175 630.69 208.005C629.5 207.455 628.3 206.945 627.07 206.475C626.74 206.345 626.41 206.215 626.09 206.095C625.84 206.005 625.58 205.905 625.32 205.815C624.44 205.495 623.56 205.195 622.66 204.915C622.23 204.785 621.8 204.645 621.37 204.525C620.94 204.395 620.51 204.275 620.07 204.155C619.65 204.045 619.22 203.925 618.8 203.825C618.35 203.715 617.9 203.605 617.45 203.505C616.57 203.305 615.68 203.125 614.78 202.945C614.36 202.865 613.93 202.785 613.51 202.715C613.47 202.705 613.44 202.695 613.41 202.695C613.35 202.685 613.3 202.685 613.25 202.665C608.07 201.935 602.81 201.685 597.55 201.865C597.53 201.855 597.51 201.855 597.49 201.865C596.96 201.895 596.43 201.945 595.91 201.985C595.82 201.985 595.73 201.995 595.64 202.015C595.2 202.055 594.76 202.095 594.33 202.145C594.32 202.145 594.3 202.145 594.29 202.155C594.27 202.145 594.26 202.155 594.24 202.165H594.21C594.1 202.175 594.01 202.185 593.9 202.205C593.54 202.245 593.18 202.295 592.82 202.335C592.7 202.345 592.58 202.365 592.46 202.375C592.4 202.385 592.35 202.395 592.3 202.405C592.15 202.425 592 202.445 591.85 202.465C567.96 205.655 544.73 213.555 523.67 225.965C502.55 238.735 483.98 255.785 469.62 275.635L460.93 287.655L363.05 422.955L362.49 423.735L358.79 428.855L358.1 429.815L349.69 441.445L349.18 442.155L348.14 443.585L346.32 446.095L324 476.955L303 505.995C303 505.995 421.75 505.995 421.76 505.985L423.92 502.995L424.29 502.495L424.48 502.225L426.03 500.085L425.93 500.005L426.01 499.895L440.36 480.055L440.93 479.275L452.76 462.925L453.48 461.925L456.67 457.525L456.92 457.175C456.98 457.165 457.04 457.155 457.1 457.145C471.68 436.985 486.26 416.825 500.85 396.665C511.71 381.655 521.62 365.855 533.12 351.325C533.13 351.315 533.13 351.315 533.13 351.315C534.05 350.135 535 348.965 535.95 347.805C542.66 339.635 549.94 331.935 557.7 324.765C557.93 324.555 558.17 324.325 558.41 324.115C559.88 322.775 561.4 321.335 562.96 319.885C562.97 319.865 562.98 319.855 562.99 319.855C567.72 315.445 572.9 310.835 578.59 307.995C579.24 307.605 579.92 307.265 580.61 306.975L583.22 306.125C583.23 306.125 583.25 306.125 583.25 306.115C583.94 305.905 584.64 305.735 585.35 305.585C591.6 304.315 598.22 307.265 601.56 312.675C603.37 315.625 603.98 318.935 603.91 322.305C603.83 326.095 602.87 329.955 601.8 333.435C601.05 335.845 600.24 338.235 599.38 340.585C585.5 378.435 557.31 409.515 534 441.735C526.22 452.485 518.45 463.235 510.67 473.995L503.22 484.305C502.84 484.845 500.3 487.485 500.41 488.185C500.43 488.295 500.45 488.415 500.47 488.535C500.32 488.615 500.16 488.685 500 488.755L499.5 489.455L487.53 506.005H564.25L569.73 498.425L590.58 469.605L604.39 450.505L604.58 450.235L605.28 449.265C613.78 437.525 621.85 425.155 630.73 413.535C630.74 413.505 630.76 413.485 630.78 413.455C639.54 401.985 649.06 391.225 660.51 382.505C663.38 380.305 666.38 378.245 669.52 376.325C669.53 376.315 669.55 376.315 669.56 376.295C669.89 376.095 670.22 375.895 670.55 375.695C671.52 375.115 672.52 374.575 673.53 374.075C673.54 374.065 673.56 374.065 673.57 374.055C674.25 373.655 674.96 373.315 675.69 373.025C675.7 373.015 675.71 373.015 675.72 373.015C676.8 372.585 677.92 372.275 679.06 372.075C679.08 372.065 679.09 372.065 679.11 372.065C682.24 371.355 685.48 371.375 688.77 372.565C694.01 374.485 698.19 379.275 699.06 384.785C699.09 385.315 699.14 385.845 699.16 386.365ZM370.11 450.615C369.97 450.405 369.83 450.195 369.69 449.995C369.83 450.205 369.97 450.415 370.12 450.625C370.18 450.725 370.25 450.835 370.32 450.935C370.24 450.815 370.17 450.715 370.11 450.615ZM698.03 307.595C698 307.485 697.98 307.385 697.96 307.275C697.99 307.385 698.02 307.485 698.03 307.595L698.06 307.685C698.05 307.655 698.05 307.625 698.03 307.595Z" fill="#FFBB07"/>
</g>
</svg>
